# File created by Blade
# Date/Time:  Wed Apr 08 17:04:22 2015
# Frame Rate: 120.000 fps
#------------------------------------------------------
:FULLY-SPECIFIED
:DEGREES
1439
root 3.546281 35.897109 4.286676 -146.872117 -76.944131 175.665821
Spine -27.429045 -16.894947 -4.164231
Head 54.886059 -12.278117 -20.378136
LeftShoulder 11.744399 4.160718 24.079268
LeftArm 106.912401 41.336510 -34.539722
LeftForeArm 5.587312 -0.000000 95.819136
LeftHand -7.640609 -0.000000 -14.817341
LeftHandThumb1 -26.253704 0.000000 33.147579
RightShoulder -25.098281 -75.275684 -5.165820
RightArm 40.497879 -38.823273 27.369378
RightForeArm -9.424623 -0.000000 36.923281
RightHand 0.537083 -0.000000 32.534305
RightHandThumb1 -24.326973 -0.000000 -32.862282
LeftUpLeg -32.408549 12.613785 -5.186180
LeftLeg 20.484158 -0.000000 -0.000000
LeftFoot -18.840824 11.545939 -15.863277
LeftToeBase 8.540293 -0.000000 -0.000000
RightUpLeg -35.601061 -4.531899 -10.381347
RightLeg 16.643982 -0.000000 -0.000000
RightFoot -9.825489 4.934281 20.335771
RightToeBase 13.950727 -0.000000 -0.000000
1440
root 3.548353 35.894873 4.301499 -146.830978 -76.867822 175.642169
Spine -27.443769 -16.893903 -4.099228
Head 54.876316 -12.168311 -20.395442
LeftShoulder 11.744447 4.197860 24.049762
LeftArm 106.930915 41.334569 -34.500902
LeftForeArm 5.562489 -0.000000 95.772412
LeftHand -7.500185 -0.000000 -14.926828
LeftHandThumb1 -26.253704 0.000000 33.147579
RightShoulder -25.384304 -75.352585 -4.969112
RightArm 41.140348 -39.142621 26.970858
RightForeArm -9.289725 -0.000000 38.964567
RightHand 0.350785 -0.000000 33.074938
RightHandThumb1 -24.326973 -0.000000 -32.862282
LeftUpLeg -32.430605 12.602452 -5.236380
LeftLeg 20.493223 -0.000000 -0.000000
LeftFoot -18.881991 11.611067 -15.864473
LeftToeBase 8.557555 -0.000000 -0.000000
RightUpLeg -35.643346 -4.545639 -10.413585
RightLeg 16.634826 -0.000000 -0.000000
RightFoot -9.798398 4.978648 20.340408
RightToeBase 13.952628 -0.000000 -0.000000
1441
root 3.550999 35.893687 4.316477 -146.757781 -76.784253 175.593707
Spine -27.465439 -16.882506 -4.054816
Head 54.886613 -12.081638 -20.393758
LeftShoulder 11.752316 4.244946 24.046456
LeftArm 106.996975 41.316356 -34.424861
LeftForeArm 5.475262 -0.000000 95.732263
LeftHand -7.543009 -0.000000 -14.913043
LeftHandThumb1 -26.253704 0.000000 33.147579
RightShoulder -25.794003 -75.436377 -4.634389
RightArm 41.784039 -39.362769 26.607816
RightForeArm -9.024108 -0.000000 40.937813
RightHand 0.127945 0.000000 33.580171
RightHandThumb1 -24.326973 -0.000000 -32.862282
LeftUpLeg -32.463156 12.596539 -5.296932
LeftLeg 20.507689 -0.000000 -0.000000
LeftFoot -18.914337 11.657830 -15.893827
LeftToeBase 8.565168 -0.000000 -0.000000
RightUpLeg -35.699471 -4.549441 -10.458661
RightLeg 16.630773 -0.000000 -0.000000
RightFoot -9.771503 5.013181 20.343062
RightToeBase 13.973911 -0.000000 -0.000000
1442
root 3.552624 35.891319 4.331029 -146.724444 -76.699542 175.555149
Spine -27.451067 -16.881257 -4.013515
Head 54.854660 -11.991800 -20.371533
LeftShoulder 11.761706 4.223089 24.048573
LeftArm 107.002120 41.346404 -34.399618
LeftForeArm 5.351670 -0.000000 95.668176
LeftHand -7.507701 0.000000 -14.919162
LeftHandThumb1 -26.253704 0.000000 33.147579
RightShoulder -26.012059 -75.470660 -4.464751
RightArm 42.390216 -39.569412 26.304872
RightForeArm -8.450737 -0.000000 42.789000
RightHand -0.149110 -0.000000 34.123916
RightHandThumb1 -24.326973 -0.000000 -32.862282
LeftUpLeg -32.465572 12.582551 -5.341439
LeftLeg 20.530452 -0.000000 -0.000000
LeftFoot -18.957344 11.717721 -15.916272
LeftToeBase 8.562798 -0.000000 -0.000000
RightUpLeg -35.720625 -4.538508 -10.507426
RightLeg 16.625042 -0.000000 -0.000000
RightFoot -9.755439 5.031753 20.316379
RightToeBase 13.994681 -0.000000 -0.000000
1443
root 3.554340 35.888863 4.346333 -146.698786 -76.611349 175.520199
Spine -27.434567 -16.875980 -3.970957
Head 54.843087 -11.913740 -20.370603
LeftShoulder 11.771075 4.210197 24.054003
LeftArm 107.022436 41.371459 -34.350404
LeftForeArm 5.304239 0.000000 95.633987
LeftHand -7.541126 -0.000000 -14.900683
LeftHandThumb1 -26.253704 0.000000 33.147579
RightShoulder -26.171168 -75.501740 -4.327216
RightArm 42.970421 -39.741799 26.017040
RightForeArm -7.693727 -0.000000 44.576334
RightHand -0.387790 -0.000000 34.520993
RightHandThumb1 -24.326973 -0.000000 -32.862282
LeftUpLeg -32.463595 12.570534 -5.387817
LeftLeg 20.551531 -0.000000 -0.000000
LeftFoot -18.995720 11.777890 -15.924156
LeftToeBase 8.549113 -0.000000 -0.000000
RightUpLeg -35.746981 -4.533687 -10.554221
RightLeg 16.630117 -0.000000 -0.000000
RightFoot -9.729484 5.076244 20.308234
RightToeBase 13.999874 -0.000000 -0.000000
1444
root 3.555474 35.886476 4.363596 -146.654726 -76.495742 175.469282
Spine -27.419644 -16.849946 -3.949206
Head 54.813063 -11.866687 -20.353318
LeftShoulder 11.780046 4.215824 24.074006
LeftArm 107.052047 41.361573 -34.300162
LeftForeArm 5.285533 -0.000000 95.606660
LeftHand -7.533637 -0.000000 -14.894853
LeftHandThumb1 -26.253704 0.000000 33.147579
RightShoulder -26.446782 -75.535409 -4.048950
RightArm 43.482791 -39.815117 25.762377
RightForeArm -6.873508 -0.000000 46.389043
RightHand -0.595443 0.000000 34.894693
RightHandThumb1 -24.326973 -0.000000 -32.862282
LeftUpLeg -32.468900 12.590924 -5.461237
LeftLeg 20.579232 -0.000000 -0.000000
LeftFoot -19.040219 11.828889 -15.944714
LeftToeBase 8.570913 -0.000000 -0.000000
RightUpLeg -35.781268 -4.499471 -10.628662
RightLeg 16.635565 -0.000000 -0.000000
RightFoot -9.703385 5.112886 20.306719
RightToeBase 13.998479 -0.000000 -0.000000
1445
root 3.556110 35.883485 4.379687 -146.628268 -76.415058 175.431600
Spine -27.407928 -16.839040 -3.902376
Head 54.778125 -11.852022 -20.334045
LeftShoulder 11.784944 4.220451 24.094532
LeftArm 107.040738 41.362343 -34.293153
LeftForeArm 5.272144 -0.000000 95.591832
LeftHand -7.496916 -0.000000 -15.012268
LeftHandThumb1 -26.253704 0.000000 33.147579
RightShoulder -26.538646 -75.533815 -3.942350
RightArm 43.843123 -39.879718 25.654938
RightForeArm -6.246740 0.000000 48.272316
RightHand -0.798035 -0.000000 35.191942
RightHandThumb1 -24.326973 -0.000000 -32.862282
LeftUpLeg -32.473372 12.583812 -5.510758
LeftLeg 20.616402 -0.000000 -0.000000
LeftFoot -19.080897 11.879498 -15.945366
LeftToeBase 8.542787 -0.000000 -0.000000
RightUpLeg -35.801794 -4.491661 -10.679205
RightLeg 16.641530 -0.000000 -0.000000
RightFoot -9.683093 5.145643 20.326036
RightToeBase 13.992748 -0.000000 -0.000000
1446
root 3.555036 35.880519 4.397537 -146.595930 -76.305021 175.386997
Spine -27.392705 -16.777128 -3.895612
Head 54.752528 -11.896642 -20.294475
LeftShoulder 11.803552 4.243202 24.162238
LeftArm 107.076569 41.370587 -34.260768
LeftForeArm 5.366599 0.000000 95.595888
LeftHand -7.563782 0.000000 -14.953667
LeftHandThumb1 -26.253704 0.000000 33.147579
RightShoulder -26.932072 -75.587419 -3.536944
RightArm 44.194738 -39.824630 25.564151
RightForeArm -5.907945 -0.000000 50.220177
RightHand -0.931568 -0.000000 35.429009
RightHandThumb1 -24.326973 -0.000000 -32.862282
LeftUpLeg -32.469757 12.616606 -5.589228
LeftLeg 20.641238 -0.000000 -0.000000
LeftFoot -19.125008 11.925191 -15.944984
LeftToeBase 8.536040 -0.000000 -0.000000
RightUpLeg -35.830368 -4.463684 -10.752496
RightLeg 16.655175 -0.000000 -0.000000
RightFoot -9.664842 5.192037 20.327651
RightToeBase 14.029538 -0.000000 -0.000000
